<?xml version="1.0" encoding="utf-8"?>
<!-- Generator: Adobe Illustrator 19.2.0, SVG Export Plug-In . SVG Version: 6.00 Build 0)  -->
<svg version="1.1" id="Layer_1" xmlns="http://www.w3.org/2000/svg" xmlns:xlink="http://www.w3.org/1999/xlink" x="0px" y="0px"
	 viewBox="0 0 688 458.8" style="enable-background:new 0 0 688 458.8;" xml:space="preserve">
<style type="text/css">
	.st0{fill:#B48F67;}
	.st1{fill:#010101;}
	.st2{font-family:'Georgia-Italic';}
	.st3{font-size:32px;}
</style>
<g>
	<path class="st0" d="M42.7,342.6h-26l-6.8,14.8H0l30.1-64.6l29,64.6h-10L42.7,342.6z M38.9,334l-9-20.7L20.4,334H38.9z"/>
	<path class="st0" d="M73.5,296.6v36.6c0,5.2,0.9,9,2.6,11.5c2.5,3.5,6.1,5.2,10.8,5.2c4.6,0,8.2-1.7,10.8-5.2
		c1.7-2.3,2.6-6.2,2.6-11.5v-36.6h9.2v39.2c0,6.4-2,11.7-6,15.8c-4.5,4.6-10,6.9-16.5,6.9s-12-2.3-16.5-6.9c-4-4.1-6-9.4-6-15.8
		v-39.2L73.5,296.6L73.5,296.6z"/>
	<path class="st0" d="M144.6,331.5l18.8,25.9h-11.2l-17.4-24.9h-1.7v24.9H124v-60.8h10.8c8,0,13.8,1.5,17.4,4.5
		c3.9,3.4,5.9,7.8,5.9,13.3c0,4.3-1.2,8-3.7,11.1C151.9,328.6,148.6,330.6,144.6,331.5z M133.1,324.5h2.9c8.7,0,13-3.3,13-10
		c0-6.2-4.2-9.3-12.7-9.3H133L133.1,324.5L133.1,324.5z"/>
	<path class="st0" d="M168.1,326.7c0-8.6,3.1-15.9,9.4-22.1c6.3-6.1,13.8-9.2,22.5-9.2s16.1,3.1,22.3,9.3c6.2,6.2,9.3,13.6,9.3,22.3
		c0,8.7-3.1,16.2-9.4,22.3c-6.3,6.1-13.9,9.2-22.7,9.2c-7.9,0-14.9-2.7-21.2-8.2C171.6,344.3,168.1,336.5,168.1,326.7z M177.4,326.8
		c0,6.7,2.3,12.3,6.8,16.6c4.5,4.3,9.7,6.5,15.6,6.5c6.4,0,11.8-2.2,16.1-6.6c4.4-4.5,6.6-9.9,6.6-16.3c0-6.5-2.2-11.9-6.5-16.3
		s-9.6-6.6-16-6.6c-6.3,0-11.7,2.2-16,6.6C179.6,315.1,177.4,320.4,177.4,326.8z"/>
	<path class="st0" d="M303.9,342.6h-26l-6.8,14.8h-9.9l30.1-64.6l29,64.6h-10L303.9,342.6z M300.1,334l-9-20.7l-9.5,20.7H300.1z"/>
	<path class="st0" d="M348.5,331.5l18.8,25.9h-11.2l-17.4-24.9H337v24.9h-9.2v-60.8h10.8c8,0,13.8,1.5,17.4,4.5
		c3.9,3.4,5.9,7.8,5.9,13.3c0,4.3-1.2,8-3.7,11.1C355.8,328.6,352.5,330.6,348.5,331.5z M337.1,324.5h2.9c8.7,0,13-3.3,13-10
		c0-6.2-4.2-9.3-12.7-9.3H337L337.1,324.5L337.1,324.5z"/>
	<path class="st0" d="M420,299.9v10.9c-5.3-4.4-10.8-6.7-16.5-6.7c-6.3,0-11.5,2.2-15.8,6.7s-6.5,9.9-6.5,16.4
		c0,6.4,2.2,11.8,6.5,16.2s9.6,6.6,15.8,6.6c3.2,0,6-0.5,8.2-1.6c1.3-0.5,2.6-1.2,3.9-2.1c1.4-0.9,2.8-2,4.3-3.2v11.1
		c-5.3,3-10.8,4.5-16.5,4.5c-8.7,0-16.1-3-22.3-9.1c-6.1-6.1-9.2-13.5-9.2-22.1c0-7.7,2.6-14.7,7.7-20.7
		c6.3-7.4,14.5-11.1,24.5-11.1C409.7,295.4,414.9,296.9,420,299.9z"/>
	<path class="st0" d="M442.5,320.4h26.2v-23.8h9.2v60.8h-9.2V329h-26.2v28.4h-9.2v-60.8h9.2V320.4z"/>
	<path class="st0" d="M501.6,296.6v60.8h-9.2v-60.8L501.6,296.6L501.6,296.6z"/>
	<path class="st0" d="M533,305.2v52.2h-9.2v-52.2h-14v-8.6h37.1v8.6H533z"/>
	<path class="st0" d="M588.7,305.2h-24.4v14.6H588v8.6h-23.7v20.3h24.4v8.6h-33.6v-60.8h33.6V305.2z"/>
	<path class="st0" d="M645.7,299.9v10.9c-5.3-4.4-10.8-6.7-16.5-6.7c-6.3,0-11.5,2.2-15.8,6.7s-6.5,9.9-6.5,16.4
		c0,6.4,2.2,11.8,6.5,16.2s9.6,6.6,15.8,6.6c3.2,0,6-0.5,8.2-1.6c1.3-0.5,2.6-1.2,3.9-2.1c1.4-0.9,2.8-2,4.3-3.2v11.1
		c-5.2,3-10.8,4.5-16.5,4.5c-8.7,0-16.1-3-22.3-9.1c-6.1-6.1-9.2-13.5-9.2-22.1c0-7.7,2.6-14.7,7.7-20.7
		c6.3-7.4,14.5-11.1,24.5-11.1C635.4,295.4,640.6,296.9,645.7,299.9z"/>
	<path class="st0" d="M674.1,305.2v52.2h-9.2v-52.2h-14v-8.6H688v8.6H674.1z"/>
	<g>
		<path class="st0" d="M344.3,77.5c6.6,0,11.9-5.5,11.9-12.2c0-6.8-5.4-12.3-11.9-12.3c-6.6,0-11.9,5.5-11.9,12.3
			C332.4,72,337.7,77.5,344.3,77.5L344.3,77.5z"/>
		<path class="st0" d="M293.2,149l0.1-0.3c0-0.1,0.1-0.2,0.1-0.3L293.2,149z"/>
		<path class="st0" d="M435.9,161.5h-35.6c0-0.1,0-0.1-0.1-0.2c-1.5-4.4-3-8.7-4.5-13l-2.9-8.3c-1.1-3-2.2-6.1-3.2-9
			c-3.5-9.7-6.8-18.6-9.6-26.3c-2.9-7.7-5.3-14.1-7-18.5c-0.8-2.1-1.4-3.8-1.9-5c2.4-4.5,3.8-9.7,3.8-15.1c0-15.2-10.4-27.9-24.2-31
			V0h-13.2v35.1c-13.8,3.1-24.2,15.8-24.2,31c0,6.1,1.7,11.8,4.6,16.6c-0.1,0-0.1,0.1-0.2,0.1c-0.5,1.2-1.2,2.9-2,5.2
			c-1.7,4.5-4.1,10.9-6.9,18.6c-2.9,7.7-6.2,16.7-9.6,26.3c-0.8,2.4-1.7,4.8-2.6,7.3l-3.1,8.6c-1.5,4.2-3,8.5-4.4,12.9h-36.2v13.7
			h31.5c-0.4,1.1-0.8,2.2-1.1,3.4c-1.7,5.1-3.3,10.2-4.9,15.1c-1.6,4.9-3.2,9.6-4.6,14.1c-1.4,4.5-2.7,8.8-4,12.7
			c-1.2,3.9-2.3,7.6-3.2,10.8c-1,3.2-1.8,6-2.4,8.4c-1.3,4.7-2,7.3-2,7.3s1.4-2.4,3.9-6.4c1.2-2.1,2.7-4.6,4.4-7.5s3.6-6.1,5.6-9.7
			s4.2-7.4,6.5-11.5s4.7-8.5,7.1-12.9c2.5-4.5,5-9.1,7.6-13.9c1.7-3.2,3.5-6.5,5.2-9.8h84.7c1.4,2.7,2.9,5.4,4.3,8
			c2.6,4.7,5.1,9.4,7.6,13.9s4.8,8.8,7.2,12.9c2.3,4.1,4.5,7.9,6.5,11.5s4,6.8,5.6,9.7c1.7,2.9,3.2,5.4,4.4,7.4
			c2.5,4.1,3.9,6.5,3.9,6.5s-0.7-2.7-2-7.3c-0.7-2.3-1.5-5.1-2.4-8.4c-1-3.2-2-6.9-3.2-10.8s-2.6-8.2-4-12.7s-3-9.2-4.5-14.1
			c-1.6-4.9-3.3-9.9-4.9-15.1c-0.2-0.5-0.4-1.1-0.5-1.6h30.9v-13.9H435.9z M344,43.3c12.1,0,22,10.2,22,22.7s-9.9,22.6-22,22.6
			S322,78.4,322,66C322,53.5,331.9,43.3,344,43.3z M332.3,117.3c3.6-7.3,6.6-13.4,8.7-17.7c0.3-0.7,0.7-1.4,1-2c0.6,0,1.3,0.1,2,0.1
			c1.2,0,2.3-0.1,3.4-0.2c0.1,0.1,0.1,0.2,0.2,0.3c2.1,4.3,5.1,10.4,8.7,17.7c2.9,5.9,16.3,31.8,23.6,46h-0.1l-6.9-13.2
			c2.2,4.3,4.5,8.7,6.9,13.2H310C316.8,148.1,329.5,122.8,332.3,117.3z"/>
	</g>
	<text transform="matrix(1 0 0 1 166.8951 451.7804)" class="st1 st2 st3">İşlərinizi bizə etibar edin</text>
</g>
</svg>
