<?xml version="1.0" encoding="utf-8"?>
<!-- Generator: Adobe Illustrator 19.2.0, SVG Export Plug-In . SVG Version: 6.00 Build 0)  -->
<svg version="1.1" id="Layer_1" xmlns="http://www.w3.org/2000/svg" xmlns:xlink="http://www.w3.org/1999/xlink" x="0px" y="0px"
	 viewBox="0 0 99.9 99.9" style="enable-background:new 0 0 99.9 99.9;" xml:space="preserve">
<style type="text/css">
	.st0{fill:#B48E67;}
</style>
<g>
	<polygon class="st0" points="99,12.5 88.5,2 36.4,46.6 54.3,64.5 	"/>
	<polygon class="st0" points="51.9,66.7 34.3,49.1 18.3,72.2 28.8,82.6 	"/>
	<path class="st0" d="M16.1,94.8l9.7-12.6L18.5,75L7.2,83.6c0,0-0.5,10.5-7.2,16.3C-0.1,100,7.9,93.9,16.1,94.8z M12.7,91.2
		c-1.2,0-2.2-1-2.2-2.2s1-2.2,2.2-2.2s2.2,1,2.2,2.2C14.9,90.2,13.9,91.2,12.7,91.2z"/>
	<path class="st0" d="M90.3,0l9.6,9.6C100-0.3,90.3,0,90.3,0z"/>
</g>
</svg>
